<svg width="200" height="100" viewBox="0 0 1244 337" fill="none" xmlns="http://www.w3.org/2000/svg">
<path d="M67.3701 16.542C72.7419 18.1916 74.4151 22.2 76.5286 25.6146C76.8576 26.0703 76.9811 26.6293 76.8723 27.17C76.7634 27.7106 76.431 28.1891 75.9474 28.5013C74.556 29.5075 73.5609 29.0457 72.8828 27.726C71.1744 24.3774 69.5717 21.0205 67.3701 16.542Z" fill="url(#paint0_linear_68_1113)"/>
<path d="M62.7293 80.8172C59.3565 78.6563 60.4133 75.1675 58.3262 72.2643C67.5199 71.9509 61.7166 77.5759 62.7293 80.8172Z" fill="url(#paint1_linear_68_1113)"/>
<path d="M96.6245 119.458C100.284 121.516 103.371 124.357 105.633 127.747C99.4073 128.398 98.06 123.755 95.8584 120.324C96.1226 120.054 96.378 119.766 96.6245 119.458Z" fill="url(#paint2_linear_68_1113)"/>
<path d="M58.7047 28.0232C58.1675 27.8912 57.5071 27.7262 57.9562 26.9922C58.0883 26.7778 58.9337 27.0582 59.4533 27.1159C59.2365 27.4408 58.9858 27.7448 58.7047 28.0232Z" fill="url(#paint3_linear_68_1113)"/>
<path d="M95.8583 120.324C95.5325 119.961 94.8632 119.367 94.9249 119.252C95.5589 118.18 96.0785 119.054 96.6245 119.458C96.3779 119.766 96.1225 120.055 95.8583 120.324Z" fill="url(#paint4_linear_68_1113)"/>
<path d="M464 39.629L568.856 181.022L635.273 75.5L731 273L635.273 142.86L568.856 237L529.139 162.518L465.195 41.586L464 39.629Z" fill="url(#paint5_linear_68_1113)"/>
<path d="M187.285 162.239C194.392 165.011 201.613 166.174 209.477 164.277L206.535 162.627C219.137 165.423 227.186 156.532 235.702 149.579C247.15 140.218 258.122 130.147 269.35 120.456C271.015 119.021 272.406 116.621 275.938 117.553C263.459 138.898 241.866 150.255 229.027 170.685C232.549 172.541 236.864 171.939 241.197 170.982C251.879 168.615 258.043 160.309 264.093 151.641C265.256 149.991 265.37 145.818 269.218 147.517C269.035 145.154 269.726 142.804 271.173 140.861C275.101 135.574 278.632 129.958 282.384 124.522C283.731 122.584 285.906 121.083 287.835 122.337C290.019 123.755 288.231 125.99 287.262 127.557C282.331 135.599 277.796 143.938 271.763 151.171C267.616 158.116 263.468 165.06 258.994 172.533C266.4 173.564 273.084 174.298 278.139 167.724C280.781 164.318 283.634 160.771 276.263 157.926C284.031 158.949 285.589 153.299 287.896 148.457C290.758 142.453 292.731 135.954 296.615 130.518C298.209 128.291 300.437 125.875 302.999 127.574C305.562 129.273 303.448 131.978 302.409 134.073C296.268 146.5 290.104 158.921 283.916 171.337C291.745 174.306 298.939 172.104 301.793 162.767C303.721 156.441 309.04 153.241 310.599 147.096C311.48 143.509 313.752 140.243 315.654 137.001C317.292 134.197 319.229 131.516 323.632 131.747C319.819 149.464 310.018 163.708 301.863 179.411C306.918 179.246 310.669 177.63 313.479 174.504C317.776 169.72 319.449 172.104 320.453 176.921C322.778 187.989 335.305 195.105 339.136 205.316L372.65 119.2C350.053 111.274 300.375 92.1496 294.052 68.3794C290.688 70.1527 287.007 72.1157 286.408 63.9751C283.634 71.6291 276.897 66.2432 273.472 70.3094C266.673 65.9876 258.589 70.3754 251.659 66.6969C249.897 65.7896 247.74 65.27 247.802 68.7506C247.907 75.2004 244.816 73.757 240.818 72.5446C238.722 71.9095 233.632 64.2968 233.368 74.4581C233.368 75.8107 230.726 74.9777 229.273 75.2828L226.746 75.2169C204.648 74.2054 182.648 71.8082 160.893 68.0413C159.598 68.4866 158.418 68.4042 157.555 67.1093C156.939 66.8206 155.714 67.233 156.155 65.7401L156.252 65.8556C148.713 66.5732 141.845 63.274 134.712 61.6822C130.432 60.7172 126.002 59.9667 122.277 56.8408C121.018 55.7768 119.996 51.4879 116.166 55.6943C114.704 57.3439 107.729 53.3189 103.256 51.8838C99.9973 50.8446 102.569 47.3145 100.552 45.2856C99.011 49.7064 96.3691 49.492 92.8466 47.7599C81.0814 41.9865 67.599 39.2647 59.4532 26.9425C59.2365 27.2674 58.9857 27.5713 58.7047 27.8497C59.2331 29.7797 59.7086 31.7839 56.7057 30.2333C53.7028 28.6828 50.9112 26.9755 47.0188 24.7898C51.4572 38.3822 56.9082 49.9373 65.6617 59.4883C75.5423 70.2764 88.6548 74.3343 101.706 78.1201C138.877 88.9494 176.832 92.1991 215.254 90.0629C220.537 89.766 225.883 89.0319 231.202 88.5783C232.382 88.4793 233.914 87.9845 234.372 89.8072C234.612 90.5499 234.534 91.3511 234.154 92.0408C233.775 92.7305 233.123 93.2547 232.338 93.5022C230.933 93.9784 229.467 94.2807 227.979 94.4012C211.599 96.0206 195.132 96.7339 178.664 96.5374C173.38 96.5374 167.788 97.6179 162.874 93.7662C161.562 92.7352 159.131 92.9414 157.273 93.1723C155.811 93.3538 160.523 95.424 156.903 95.6467C155.195 95.747 153.481 95.7194 151.778 95.5642C133.752 94.0796 115.672 92.9744 97.919 88.9659C92.8994 87.8607 87.6421 87.7535 81.3984 87.0524C99.6274 111.969 122.189 123.434 150.897 121.545C159.862 120.951 168.642 119.202 177.545 118.402C179.976 114.567 174.437 115.928 174.736 113.495C175.088 113.371 175.537 113.025 175.863 113.132C192.965 118.831 208.394 110.427 224.298 106.534C230.709 104.975 236.917 102.525 243.231 100.505C246.014 99.6138 249.607 97.5766 250.857 101.89C252.213 106.534 247.537 106.583 245.098 107.309C238.846 109.157 231.889 110.097 226.288 112.398C217.878 115.829 209.204 117.413 200.75 120.275C195.977 121.924 191.6 119.334 187.012 119.813C185.982 119.92 184.846 119.87 184.52 121.314C185.876 123.631 185.885 123.656 183.031 124.201C165.806 127.5 148.52 130.386 131.022 131.219C128.38 131.343 129.357 134.411 127.358 133.982C127.534 135.632 129.12 135.459 130 136.094C132.88 138.131 136.534 137.339 139.687 139.096C152.43 146.263 165.939 147.426 180.055 144.795C186.272 143.632 192.225 141.331 198.108 140.127C200.107 143.03 194.938 145.026 197.712 146.997C200.82 149.2 198.592 149.53 197.174 150.297C192.974 152.482 188.738 154.585 184.511 156.713C184.513 157.769 184.762 158.811 185.241 159.765C185.721 160.72 186.418 161.565 187.285 162.239ZM208.279 135.418C224.447 128.572 240.757 121.817 254.82 110.476C255.762 109.709 256.925 108.538 258.184 109.816C259.443 111.095 258.704 112.373 257.938 113.47C257.245 114.58 256.351 115.568 255.296 116.39C238.388 128.085 220.678 138.23 201.895 147.888C200.855 141.092 202.59 137.826 208.279 135.418Z" fill="url(#paint6_linear_68_1113)"/>
<path d="M105.633 127.747C99.4072 128.399 98.0598 123.755 95.8582 120.324C95.5324 119.961 94.8631 119.367 94.9248 119.252C95.5588 118.18 96.0784 119.054 96.6244 119.458C100.284 121.516 103.371 124.357 105.633 127.747ZM131.171 150.923C133.082 146.915 135.169 144.977 139.528 148.185C141.492 149.637 144.495 149.513 147.824 150.288C141.809 152.944 136.622 153.678 131.163 150.923H131.171ZM196.76 187.271C196.056 186.686 194.603 185.861 196.153 184.797C196.954 184.253 197.623 182.108 199.129 183.857C202.291 187.527 206.976 188.649 211.828 191.725C205.223 192.657 200.767 190.645 196.76 187.271ZM76.5285 25.6146C76.8575 26.0703 76.981 26.6293 76.8721 27.17C76.7633 27.7106 76.4309 28.1891 75.9473 28.5013C74.5559 29.5075 73.5608 29.0457 72.8827 27.726C71.1743 24.3774 69.5716 21.0205 67.37 16.542C72.7418 18.1916 74.3534 22.2 76.5285 25.6146ZM187.206 50.9931C190.807 54.1767 193.978 57.1542 198.856 59.5543C190.297 62.5895 189.205 61.7152 187.206 50.9931ZM137.538 45.2196C134.236 44.6752 134.236 44.6752 128.362 33.7799L129.613 32.5757L137.538 45.2196ZM285.483 200.905C290.573 197.787 293.99 198.274 296.377 203.627L285.483 200.905ZM240.175 184.632C240.284 184.913 240.327 185.212 240.301 185.509C240.275 185.807 240.181 186.096 240.026 186.356C236.195 188.088 233.914 184.22 230.841 183.263C234.319 182.026 237.586 181.539 240.175 184.632ZM58.3083 72.2641C67.5197 71.9507 61.7164 77.584 62.7115 80.8171C59.3827 78.6562 60.413 75.1674 58.3083 72.2641ZM255.023 175.527C255.903 176.516 254.371 178.422 253.068 179.23C249.933 181.168 248.664 179.09 247.599 175.873C250.267 176.327 252.645 172.871 255.023 175.527Z" fill="url(#paint7_linear_68_1113)"/>
<path d="M147.815 150.288C141.809 152.944 136.622 153.678 131.163 150.923C133.074 146.915 135.161 144.977 139.52 148.185C141.484 149.637 144.486 149.513 147.815 150.288Z" fill="url(#paint8_linear_68_1113)"/>
<path d="M211.784 191.725C205.223 192.657 200.767 190.645 196.716 187.263C196.012 186.678 194.559 185.853 196.109 184.789C196.91 184.245 197.579 182.1 199.085 183.849C202.247 187.527 206.932 188.649 211.784 191.725Z" fill="url(#paint9_linear_68_1113)"/>
<path d="M184.493 156.887C184.497 157.943 184.75 158.986 185.232 159.941C185.714 160.896 186.415 161.74 187.285 162.413C185.718 165.06 183.648 166.99 180.548 165.778C178.144 164.838 179.201 162.413 179.192 160.491C179.148 156.301 181.984 156.862 184.493 156.887Z" fill="url(#paint10_linear_68_1113)"/>
<path d="M198.857 59.5544C190.297 62.5896 189.17 61.7153 187.206 50.9932C190.808 54.1768 193.978 57.1543 198.857 59.5544Z" fill="url(#paint11_linear_68_1113)"/>
<path d="M129.613 32.5757L137.538 45.2608C134.236 44.6752 134.236 44.6752 128.362 33.7799L129.613 32.5757Z" fill="url(#paint12_linear_68_1113)"/>
<path d="M160.893 68.1979C159.598 68.6432 158.418 68.5608 157.555 67.2659C157.555 66.2266 157.423 65.4349 156.155 65.8967L156.252 66.0287C155.371 61.6326 158.63 59.5872 160.796 56.7747C162.777 60.6511 159.237 64.4451 160.893 68.1979Z" fill="url(#paint13_linear_68_1113)"/>
<path d="M229.273 75.4397L226.746 75.3737C225.865 71.8271 222.087 70.7879 220.582 67.6537C226.358 67.2413 227.697 68.5033 229.273 75.4397Z" fill="url(#paint14_linear_68_1113)"/>
<path d="M296.368 203.668L285.475 200.946C290.565 197.829 293.982 198.315 296.368 203.668Z" fill="url(#paint15_linear_68_1113)"/>
<path d="M230.841 183.263C234.363 182.026 237.586 181.539 240.175 184.632C240.284 184.913 240.327 185.212 240.301 185.509C240.275 185.807 240.181 186.096 240.026 186.356C236.195 188.096 233.914 184.22 230.841 183.263Z" fill="url(#paint16_linear_68_1113)"/>
<path d="M247.599 175.873C250.241 176.327 252.645 172.871 255.023 175.527C255.903 176.516 254.371 178.422 253.068 179.23C249.933 181.168 248.647 179.09 247.599 175.873Z" fill="url(#paint17_linear_68_1113)"/>
<path d="M1058.72 162.239C1051.61 165.011 1044.39 166.174 1036.52 164.277L1039.47 162.627C1026.86 165.423 1018.81 156.532 1010.3 149.579C998.851 140.218 987.878 130.147 976.65 120.456C974.986 119.021 973.594 116.621 970.063 117.553C982.542 138.898 1004.13 150.255 1016.97 170.685C1013.45 172.541 1009.14 171.939 1004.8 170.982C994.122 168.615 987.958 160.309 981.908 151.641C980.745 149.991 980.631 145.818 976.782 147.517C976.965 145.154 976.275 142.804 974.827 140.861C970.9 135.574 967.368 129.958 963.617 124.522C962.27 122.584 960.094 121.083 958.166 122.337C955.982 123.755 957.77 125.99 958.738 127.557C963.67 135.599 968.205 143.938 974.237 151.171C978.385 158.116 982.533 165.06 987.006 172.533C979.6 173.564 972.916 174.298 967.862 167.724C965.22 164.318 962.367 160.771 969.737 157.926C961.97 158.949 960.412 153.299 958.104 148.457C955.242 142.453 953.27 135.954 949.386 130.518C947.792 128.291 945.564 125.875 943.002 127.574C940.439 129.273 942.552 131.978 943.592 134.073C949.732 146.5 955.897 158.921 962.085 171.337C954.256 174.306 947.061 172.104 944.208 162.767C942.279 156.441 936.96 153.241 935.402 147.096C934.521 143.509 932.249 140.243 930.347 137.001C928.709 134.197 926.772 131.516 922.368 131.747C926.182 149.464 935.983 163.708 944.138 179.411C939.083 179.246 935.331 177.63 932.522 174.504C928.225 169.72 926.551 172.104 925.548 176.921C923.223 187.989 908.194 198.511 904.364 208.722L873.351 119.2C895.948 111.274 945.626 92.1496 951.949 68.3794C955.313 70.1527 958.994 72.1157 959.593 63.9751C962.367 71.6291 969.103 66.2432 972.529 70.3094C979.327 65.9876 987.412 70.3754 994.342 66.6969C996.103 65.7896 998.261 65.27 998.199 68.7506C998.094 75.2004 1001.18 73.757 1005.18 72.5446C1007.28 71.9095 1012.37 64.2968 1012.63 74.4581C1012.63 75.8107 1015.27 74.9777 1016.73 75.2828L1019.25 75.2169C1041.35 74.2054 1063.35 71.8082 1085.11 68.0413C1086.4 68.4866 1087.58 68.4042 1088.45 67.1093C1089.06 66.8206 1090.29 67.233 1089.85 65.7401L1089.75 65.8556C1097.29 66.5732 1104.16 63.274 1111.29 61.6822C1115.57 60.7172 1120 59.9667 1123.72 56.8408C1124.98 55.7768 1126 51.4879 1129.84 55.6943C1131.3 57.3439 1138.27 53.3189 1142.75 51.8838C1146 50.8446 1143.43 47.3145 1145.45 45.2856C1146.99 49.7064 1149.63 49.492 1153.15 47.7599C1164.92 41.9865 1178.4 39.2647 1186.55 26.9425C1186.76 27.2674 1187.01 27.5713 1187.3 27.8497C1186.77 29.7797 1186.29 31.7839 1189.3 30.2333C1192.3 28.6828 1195.09 26.9755 1198.98 24.7898C1194.54 38.3822 1189.09 49.9373 1180.34 59.4883C1170.46 70.2764 1157.35 74.3343 1144.3 78.1201C1107.12 88.9494 1069.17 92.1991 1030.75 90.0629C1025.46 89.766 1020.12 89.0319 1014.8 88.5783C1013.62 88.4793 1012.09 87.9845 1011.63 89.8072C1011.39 90.5499 1011.47 91.3511 1011.85 92.0408C1012.23 92.7305 1012.88 93.2547 1013.66 93.5022C1015.07 93.9784 1016.53 94.2807 1018.02 94.4012C1034.4 96.0206 1050.87 96.7339 1067.34 96.5374C1072.62 96.5374 1078.21 97.6179 1083.13 93.7662C1084.44 92.7352 1086.87 92.9414 1088.73 93.1723C1090.19 93.3538 1085.48 95.424 1089.1 95.6467C1090.81 95.747 1092.52 95.7194 1094.22 95.5642C1112.25 94.0796 1130.33 92.9744 1148.08 88.9659C1153.1 87.8607 1158.36 87.7535 1164.6 87.0524C1146.37 111.969 1123.81 123.434 1095.1 121.545C1086.14 120.951 1077.36 119.202 1068.46 118.402C1066.03 114.567 1071.56 115.928 1071.26 113.495C1070.91 113.371 1070.46 113.025 1070.14 113.132C1053.04 118.831 1037.61 110.427 1021.7 106.534C1015.29 104.975 1009.08 102.525 1002.77 100.505C999.987 99.6138 996.394 97.5766 995.143 101.89C993.787 106.534 998.463 106.583 1000.9 107.309C1007.16 109.157 1014.11 110.097 1019.71 112.398C1028.12 115.829 1036.8 117.413 1045.25 120.275C1050.02 121.924 1054.4 119.334 1058.99 119.813C1060.02 119.92 1061.16 119.87 1061.48 121.314C1060.12 123.631 1060.12 123.656 1062.97 124.201C1080.19 127.5 1097.48 130.386 1114.98 131.219C1117.62 131.343 1116.64 134.411 1118.64 133.982C1118.47 135.632 1116.88 135.459 1116 136.094C1113.12 138.131 1109.47 137.339 1106.31 139.096C1093.57 146.263 1080.06 147.426 1065.95 144.795C1059.73 143.632 1053.78 141.331 1047.89 140.127C1045.89 143.03 1051.06 145.026 1048.29 146.997C1045.18 149.2 1047.41 149.53 1048.83 150.297C1053.03 152.482 1057.26 154.585 1061.49 156.713C1061.49 157.769 1061.24 158.811 1060.76 159.765C1060.28 160.72 1059.58 161.565 1058.72 162.239ZM1037.72 135.418C1021.55 128.572 1005.24 121.817 991.181 110.476C990.238 109.709 989.076 108.538 987.817 109.816C986.557 111.095 987.297 112.373 988.063 113.47C988.756 114.58 989.65 115.568 990.705 116.39C1007.61 128.085 1025.32 138.23 1044.11 147.888C1045.15 141.092 1043.41 137.826 1037.72 135.418Z" fill="url(#paint18_linear_68_1113)"/>
<path d="M1140.37 127.747C1146.59 128.399 1147.94 123.755 1150.14 120.324C1150.47 119.961 1151.14 119.367 1151.08 119.252C1150.44 118.18 1149.92 119.054 1149.38 119.458C1145.72 121.516 1142.63 124.357 1140.37 127.747ZM1114.83 150.923C1112.92 146.915 1110.83 144.977 1106.47 148.185C1104.51 149.637 1101.51 149.513 1098.18 150.288C1104.19 152.944 1109.38 153.678 1114.84 150.923H1114.83ZM1049.24 187.271C1049.94 186.686 1051.4 185.861 1049.85 184.797C1049.05 184.253 1048.38 182.108 1046.87 183.857C1043.71 187.527 1039.03 188.649 1034.17 191.725C1040.78 192.657 1045.23 190.645 1049.24 187.271ZM1169.47 25.6146C1169.14 26.0703 1169.02 26.6293 1169.13 27.17C1169.24 27.7106 1169.57 28.1891 1170.05 28.5013C1171.44 29.5075 1172.44 29.0457 1173.12 27.726C1174.83 24.3774 1176.43 21.0205 1178.63 16.542C1173.26 18.1916 1171.65 22.2 1169.47 25.6146ZM1058.8 50.9931C1055.19 54.1767 1052.02 57.1542 1047.14 59.5543C1055.7 62.5895 1056.8 61.7152 1058.8 50.9931ZM1108.46 45.2196C1111.76 44.6752 1111.76 44.6752 1117.64 33.7799L1116.39 32.5757L1108.46 45.2196ZM960.517 200.905C955.427 197.787 952.01 198.274 949.624 203.627L960.517 200.905ZM1005.83 184.632C1005.72 184.913 1005.67 185.212 1005.7 185.509C1005.73 185.807 1005.82 186.096 1005.98 186.356C1009.81 188.088 1012.09 184.22 1015.16 183.263C1011.68 182.026 1008.41 181.539 1005.83 184.632ZM1187.69 72.2641C1178.48 71.9507 1184.28 77.584 1183.29 80.8171C1186.62 78.6562 1185.59 75.1674 1187.69 72.2641ZM990.978 175.527C990.098 176.516 991.63 178.422 992.933 179.23C996.068 181.168 997.336 179.09 998.402 175.873C995.734 176.327 993.356 172.871 990.978 175.527Z" fill="url(#paint19_linear_68_1113)"/>
<path d="M1098.19 150.288C1104.19 152.944 1109.38 153.678 1114.84 150.923C1112.93 146.915 1110.84 144.977 1106.48 148.185C1104.52 149.637 1101.51 149.513 1098.19 150.288Z" fill="url(#paint20_linear_68_1113)"/>
<path d="M1034.22 191.725C1040.78 192.657 1045.23 190.645 1049.28 187.263C1049.99 186.678 1051.44 185.853 1049.89 184.789C1049.09 184.245 1048.42 182.1 1046.92 183.849C1043.75 187.527 1039.07 188.649 1034.22 191.725Z" fill="url(#paint21_linear_68_1113)"/>
<path d="M1061.51 156.887C1061.5 157.943 1061.25 158.986 1060.77 159.941C1060.29 160.896 1059.59 161.74 1058.72 162.413C1060.28 165.06 1062.35 166.99 1065.45 165.778C1067.86 164.838 1066.8 162.413 1066.81 160.491C1066.85 156.301 1064.02 156.862 1061.51 156.887Z" fill="url(#paint22_linear_68_1113)"/>
<path d="M1178.63 16.542C1173.26 18.1916 1171.59 22.2 1169.47 25.6146C1169.14 26.0703 1169.02 26.6293 1169.13 27.17C1169.24 27.7106 1169.57 28.1891 1170.05 28.5013C1171.44 29.5075 1172.44 29.0457 1173.12 27.726C1174.83 24.3774 1176.43 21.0205 1178.63 16.542Z" fill="url(#paint23_linear_68_1113)"/>
<path d="M1047.14 59.5544C1055.7 62.5896 1056.83 61.7153 1058.79 50.9932C1055.19 54.1768 1052.02 57.1543 1047.14 59.5544Z" fill="url(#paint24_linear_68_1113)"/>
<path d="M1116.39 32.5757L1108.46 45.2608C1111.76 44.6752 1111.76 44.6752 1117.64 33.7799L1116.39 32.5757Z" fill="url(#paint25_linear_68_1113)"/>
<path d="M1085.11 68.1979C1086.4 68.6432 1087.58 68.5608 1088.45 67.2659C1088.45 66.2266 1088.58 65.4349 1089.85 65.8967L1089.75 66.0287C1090.63 61.6326 1087.37 59.5872 1085.2 56.7747C1083.22 60.6511 1086.76 64.4451 1085.11 68.1979Z" fill="url(#paint26_linear_68_1113)"/>
<path d="M1016.73 75.4397L1019.26 75.3737C1020.14 71.8271 1023.91 70.7879 1025.42 67.6537C1019.64 67.2413 1018.3 68.5033 1016.73 75.4397Z" fill="url(#paint27_linear_68_1113)"/>
<path d="M949.633 203.668L960.526 200.946C955.436 197.829 952.019 198.315 949.633 203.668Z" fill="url(#paint28_linear_68_1113)"/>
<path d="M1015.16 183.263C1011.64 182.026 1008.41 181.539 1005.83 184.632C1005.72 184.913 1005.67 185.212 1005.7 185.509C1005.73 185.807 1005.82 186.096 1005.98 186.356C1009.81 188.096 1012.09 184.22 1015.16 183.263Z" fill="url(#paint29_linear_68_1113)"/>
<path d="M1183.27 80.8172C1186.64 78.6563 1185.59 75.1675 1187.67 72.2643C1178.48 71.9509 1184.28 77.5759 1183.27 80.8172Z" fill="url(#paint30_linear_68_1113)"/>
<path d="M1149.38 119.458C1145.72 121.516 1142.63 124.357 1140.37 127.747C1146.59 128.398 1147.94 123.755 1150.14 120.324C1149.88 120.054 1149.62 119.766 1149.38 119.458Z" fill="url(#paint31_linear_68_1113)"/>
<path d="M998.402 175.873C995.76 176.327 993.356 172.871 990.978 175.527C990.098 176.516 991.63 178.422 992.933 179.23C996.068 181.168 997.354 179.09 998.402 175.873Z" fill="url(#paint32_linear_68_1113)"/>
<path d="M1187.3 28.0232C1187.83 27.8912 1188.49 27.7262 1188.04 26.9922C1187.91 26.7778 1187.07 27.0582 1186.55 27.1159C1186.76 27.4408 1187.01 27.7448 1187.3 28.0232Z" fill="url(#paint33_linear_68_1113)"/>
<path d="M1150.14 120.324C1150.47 119.961 1151.14 119.367 1151.08 119.252C1150.44 118.18 1149.92 119.054 1149.38 119.458C1149.62 119.766 1149.88 120.055 1150.14 120.324Z" fill="url(#paint34_linear_68_1113)"/>
<path d="M685.172 228H665.871V111.404H685.172V228ZM796.547 111.404V124.377H761.742V228H742.6V124.377H707.795V111.404H796.547Z" fill="white"/>
<path d="M912 252H891.5L887.75 236L878.75 208.5L842.75 207.75L810.25 208.5L800.5 235L796.5 252H776.5L835.25 91.75H858.5L912 252ZM873.25 191.5L847.25 112.5H845.5L816.5 191.5L844.5 192L873.25 191.5Z" fill="white"/>
<path d="M472.188 108.404H491.172V225H472.188V108.404ZM507.309 108.404C517.117 108.404 525.713 109.986 533.096 113.15C540.584 116.209 546.754 120.322 551.605 125.49C556.562 130.658 560.254 136.564 562.68 143.209C565.105 149.748 566.318 156.498 566.318 163.459C566.318 173.057 565.264 181.283 563.154 188.139C561.15 194.889 558.566 200.584 555.402 205.225C552.238 209.76 548.652 213.346 544.645 215.982C540.742 218.619 536.945 220.623 533.254 221.994C529.562 223.26 526.188 224.104 523.129 224.525C520.07 224.842 517.803 225 516.326 225H497.658V211.078H509.998C522.865 211.078 532.146 206.965 537.842 198.738C543.537 190.512 546.385 178.594 546.385 162.984C546.385 158.133 545.805 153.334 544.645 148.588C543.484 143.842 541.217 139.57 537.842 135.773C534.572 131.871 530.09 128.76 524.395 126.439C518.699 124.014 511.316 122.801 502.246 122.801H497.658V108.404H507.309Z" fill="white"/>
<path d="M472.188 108.404H491.172V225H472.188V108.404ZM507.309 108.404C517.117 108.404 525.713 109.986 533.096 113.15C540.584 116.209 546.754 120.322 551.605 125.49C556.562 130.658 560.254 136.564 562.68 143.209C565.105 149.748 566.318 156.498 566.318 163.459C566.318 173.057 565.264 181.283 563.154 188.139C561.15 194.889 558.566 200.584 555.402 205.225C552.238 209.76 548.652 213.346 544.645 215.982C540.742 218.619 536.945 220.623 533.254 221.994C529.562 223.26 526.188 224.104 523.129 224.525C520.07 224.842 517.803 225 516.326 225H497.658V211.078H509.998C522.865 211.078 532.146 206.965 537.842 198.738C543.537 190.512 546.385 178.594 546.385 162.984C546.385 158.133 545.805 153.334 544.645 148.588C543.484 143.842 541.217 139.57 537.842 135.773C534.572 131.871 530.09 128.76 524.395 126.439C518.699 124.014 511.316 122.801 502.246 122.801H497.658V108.404H507.309Z" fill="white"/>
<path d="M510 125.5L500 107L513.5 106.5L531 130L510 125.5Z" fill="url(#paint35_linear_68_1113)"/>
<path d="M350.879 291V266.81H341.367V262.3H365.721V266.81H356.209V291H350.879ZM392.353 262.3H397.683V291H392.353V262.3ZM377.511 291H372.181V262.3H377.511V291ZM392.763 278.7H377.06V274.149H392.763V278.7ZM412.753 274.231H427.021V278.618H412.753V274.231ZM413.163 286.531H429.358V291H407.833V262.3H428.784V266.769H413.163V286.531ZM471.723 262.3H477.053V291H471.723V262.3ZM456.881 291H451.551V262.3H456.881V291ZM472.133 278.7H456.43V274.149H472.133V278.7ZM494.255 291V279.643L495.444 282.923L482.98 262.3H488.679L498.683 278.905H495.485L505.571 262.3H510.819L498.355 282.923L499.585 279.643V291H494.255ZM516.41 291V262.3H520.797L533.343 283.251H531.047L543.388 262.3H547.775L547.816 291H542.773L542.732 270.213H543.798L533.302 287.72H530.924L520.264 270.213H521.494V291H516.41ZM558.028 291V262.3H562.415L580.414 284.399H578.241V262.3H583.53V291H579.143L561.144 268.901H563.317V291H558.028ZM620.919 291.41C618.678 291.41 616.614 291.041 614.728 290.303C612.842 289.565 611.202 288.54 609.808 287.228C608.414 285.889 607.335 284.331 606.569 282.554C605.804 280.75 605.421 278.782 605.421 276.65C605.421 274.518 605.804 272.564 606.569 270.787C607.335 268.983 608.414 267.425 609.808 266.113C611.202 264.774 612.842 263.735 614.728 262.997C616.614 262.259 618.664 261.89 620.878 261.89C623.12 261.89 625.17 262.259 627.028 262.997C628.914 263.735 630.554 264.774 631.948 266.113C633.342 267.425 634.422 268.983 635.187 270.787C635.953 272.564 636.335 274.518 636.335 276.65C636.335 278.782 635.953 280.75 635.187 282.554C634.422 284.358 633.342 285.916 631.948 287.228C630.554 288.54 628.914 289.565 627.028 290.303C625.17 291.041 623.133 291.41 620.919 291.41ZM620.878 286.736C622.327 286.736 623.666 286.49 624.896 285.998C626.126 285.506 627.192 284.809 628.094 283.907C628.996 282.978 629.693 281.912 630.185 280.709C630.705 279.479 630.964 278.126 630.964 276.65C630.964 275.174 630.705 273.835 630.185 272.632C629.693 271.402 628.996 270.336 628.094 269.434C627.192 268.505 626.126 267.794 624.896 267.302C623.666 266.81 622.327 266.564 620.878 266.564C619.43 266.564 618.09 266.81 616.86 267.302C615.658 267.794 614.592 268.505 613.662 269.434C612.76 270.336 612.05 271.402 611.53 272.632C611.038 273.835 610.792 275.174 610.792 276.65C610.792 278.099 611.038 279.438 611.53 280.668C612.05 281.898 612.76 282.978 613.662 283.907C614.564 284.809 615.63 285.506 616.86 285.998C618.09 286.49 619.43 286.736 620.878 286.736ZM649.324 275.502H663.633V280.012H649.324V275.502ZM649.775 291H644.445V262.3H665.396V266.769H649.775V291ZM686.801 291V262.3H698.609C701.151 262.3 703.324 262.71 705.128 263.53C706.96 264.35 708.367 265.525 709.351 267.056C710.335 268.587 710.827 270.404 710.827 272.509C710.827 274.614 710.335 276.431 709.351 277.962C708.367 279.493 706.96 280.668 705.128 281.488C703.324 282.308 701.151 282.718 698.609 282.718H689.753L692.131 280.217V291H686.801ZM692.131 280.791L689.753 278.208H698.363C700.714 278.208 702.477 277.716 703.652 276.732C704.855 275.721 705.456 274.313 705.456 272.509C705.456 270.678 704.855 269.27 703.652 268.286C702.477 267.302 700.714 266.81 698.363 266.81H689.753L692.131 264.186V280.791ZM713.11 291L726.025 262.3H731.273L744.229 291H738.653L727.542 265.129H729.674L718.604 291H713.11ZM719.055 284.358L720.49 280.176H735.988L737.423 284.358H719.055ZM750.339 291V262.3H762.147C764.689 262.3 766.862 262.71 768.666 263.53C770.497 264.35 771.905 265.525 772.889 267.056C773.873 268.587 774.365 270.404 774.365 272.509C774.365 274.614 773.873 276.431 772.889 277.962C771.905 279.465 770.497 280.627 768.666 281.447C766.862 282.24 764.689 282.636 762.147 282.636H753.291L755.669 280.217V291H750.339ZM769.117 291L761.86 280.586H767.559L774.857 291H769.117ZM755.669 280.791L753.291 278.249H761.901C764.251 278.249 766.014 277.743 767.19 276.732C768.392 275.721 768.994 274.313 768.994 272.509C768.994 270.678 768.392 269.27 767.19 268.286C766.014 267.302 764.251 266.81 761.901 266.81H753.291L755.669 264.186V280.791ZM778.729 291L791.644 262.3H796.892L809.848 291H804.272L793.161 265.129H795.293L784.223 291H778.729ZM784.674 284.358L786.109 280.176H801.607L803.042 284.358H784.674ZM815.958 291V262.3H828.504C831.62 262.3 834.353 262.901 836.704 264.104C839.054 265.307 840.886 266.974 842.198 269.106C843.51 271.238 844.166 273.753 844.166 276.65C844.166 279.52 843.51 282.035 842.198 284.194C840.886 286.326 839.054 287.993 836.704 289.196C834.353 290.399 831.62 291 828.504 291H815.958ZM821.288 286.49H828.258C830.417 286.49 832.276 286.08 833.834 285.26C835.419 284.44 836.635 283.292 837.483 281.816C838.357 280.34 838.795 278.618 838.795 276.65C838.795 274.655 838.357 272.933 837.483 271.484C836.635 270.008 835.419 268.86 833.834 268.04C832.276 267.22 830.417 266.81 828.258 266.81H821.288V286.49ZM865.739 291.41C863.497 291.41 861.434 291.041 859.548 290.303C857.662 289.565 856.022 288.54 854.628 287.228C853.234 285.889 852.154 284.331 851.389 282.554C850.623 280.75 850.241 278.782 850.241 276.65C850.241 274.518 850.623 272.564 851.389 270.787C852.154 268.983 853.234 267.425 854.628 266.113C856.022 264.774 857.662 263.735 859.548 262.997C861.434 262.259 863.484 261.89 865.698 261.89C867.939 261.89 869.989 262.259 871.848 262.997C873.734 263.735 875.374 264.774 876.768 266.113C878.162 267.425 879.241 268.983 880.007 270.787C880.772 272.564 881.155 274.518 881.155 276.65C881.155 278.782 880.772 280.75 880.007 282.554C879.241 284.358 878.162 285.916 876.768 287.228C875.374 288.54 873.734 289.565 871.848 290.303C869.989 291.041 867.953 291.41 865.739 291.41ZM865.698 286.736C867.146 286.736 868.486 286.49 869.716 285.998C870.946 285.506 872.012 284.809 872.914 283.907C873.816 282.978 874.513 281.912 875.005 280.709C875.524 279.479 875.784 278.126 875.784 276.65C875.784 275.174 875.524 273.835 875.005 272.632C874.513 271.402 873.816 270.336 872.914 269.434C872.012 268.505 870.946 267.794 869.716 267.302C868.486 266.81 867.146 266.564 865.698 266.564C864.249 266.564 862.91 266.81 861.68 267.302C860.477 267.794 859.411 268.505 858.482 269.434C857.58 270.336 856.869 271.402 856.35 272.632C855.858 273.835 855.612 275.174 855.612 276.65C855.612 278.099 855.858 279.438 856.35 280.668C856.869 281.898 857.58 282.978 858.482 283.907C859.384 284.809 860.45 285.506 861.68 285.998C862.91 286.49 864.249 286.736 865.698 286.736ZM884.739 291L896.834 274.354V278.372L885.313 262.3H891.34L899.909 274.19L897.449 274.231L905.936 262.3H911.717L900.278 278.085V274.231L912.455 291H906.305L897.285 278.372H899.704L890.807 291H884.739Z" fill="url(#paint36_linear_68_1113)"/>
<path d="M465.131 251.273H444.631L440.881 235.273L431.881 207.773L395.881 207.023L363.381 207.773L353.631 234.273L349.631 251.273H329.631L388.381 91.0227H411.631L465.131 251.273ZM426.381 190.773L400.381 111.773H398.631L369.631 190.773L397.631 191.273L426.381 190.773Z" fill="white"/>
<rect x="866.264" y="189.578" width="6.06525" height="23.4221" transform="rotate(-17.8472 866.264 189.578)" fill="#565454"/>
<path d="M381.584 179.036L375 176L363.279 208.01L371.279 207.65L381.584 179.036Z" fill="#565454"/>
<defs>
<linearGradient id="paint0_linear_68_1113" x1="67.3701" y1="22.7955" x2="76.9105" y2="22.7955" gradientUnits="userSpaceOnUse">
<stop stop-color="#FF1515"/>
<stop offset="0.38" stop-color="#FF1717"/>
<stop offset="0.52" stop-color="#FF1E1E"/>
<stop offset="0.61" stop-color="#FF2929"/>
<stop offset="0.69" stop-color="#FF3A3A"/>
<stop offset="0.76" stop-color="#FF5050"/>
<stop offset="0.82" stop-color="#FF6C6C"/>
<stop offset="0.87" stop-color="#FF8C8C"/>
<stop offset="0.92" stop-color="#FFB2B2"/>
<stop offset="0.97" stop-color="#FFDBDB"/>
<stop offset="1" stop-color="white"/>
<stop offset="1" stop-color="white"/>
<stop offset="1" stop-color="white"/>
</linearGradient>
<linearGradient id="paint1_linear_68_1113" x1="58.3262" y1="76.5354" x2="63.6164" y2="76.5354" gradientUnits="userSpaceOnUse">
<stop stop-color="#FF1515"/>
<stop offset="0.38" stop-color="#FF1717"/>
<stop offset="0.52" stop-color="#FF1E1E"/>
<stop offset="0.61" stop-color="#FF2929"/>
<stop offset="0.69" stop-color="#FF3A3A"/>
<stop offset="0.76" stop-color="#FF5050"/>
<stop offset="0.82" stop-color="#FF6C6C"/>
<stop offset="0.87" stop-color="#FF8C8C"/>
<stop offset="0.92" stop-color="#FFB2B2"/>
<stop offset="0.97" stop-color="#FFDBDB"/>
<stop offset="1" stop-color="white"/>
<stop offset="1" stop-color="white"/>
<stop offset="1" stop-color="white"/>
</linearGradient>
<linearGradient id="paint2_linear_68_1113" x1="95.8584" y1="123.634" x2="105.633" y2="123.634" gradientUnits="userSpaceOnUse">
<stop stop-color="#FF1515"/>
<stop offset="0.38" stop-color="#FF1717"/>
<stop offset="0.52" stop-color="#FF1E1E"/>
<stop offset="0.61" stop-color="#FF2929"/>
<stop offset="0.69" stop-color="#FF3A3A"/>
<stop offset="0.76" stop-color="#FF5050"/>
<stop offset="0.82" stop-color="#FF6C6C"/>
<stop offset="0.87" stop-color="#FF8C8C"/>
<stop offset="0.92" stop-color="#FFB2B2"/>
<stop offset="0.97" stop-color="#FFDBDB"/>
<stop offset="1" stop-color="white"/>
<stop offset="1" stop-color="white"/>
<stop offset="1" stop-color="white"/>
</linearGradient>
<linearGradient id="paint3_linear_68_1113" x1="57.8074" y1="27.468" x2="59.4532" y2="27.468" gradientUnits="userSpaceOnUse">
<stop stop-color="#FF1515"/>
<stop offset="0.38" stop-color="#FF1717"/>
<stop offset="0.52" stop-color="#FF1E1E"/>
<stop offset="0.61" stop-color="#FF2929"/>
<stop offset="0.69" stop-color="#FF3A3A"/>
<stop offset="0.76" stop-color="#FF5050"/>
<stop offset="0.82" stop-color="#FF6C6C"/>
<stop offset="0.87" stop-color="#FF8C8C"/>
<stop offset="0.92" stop-color="#FFB2B2"/>
<stop offset="0.97" stop-color="#FFDBDB"/>
<stop offset="1" stop-color="white"/>
<stop offset="1" stop-color="white"/>
<stop offset="1" stop-color="white"/>
</linearGradient>
<linearGradient id="paint4_linear_68_1113" x1="94.9209" y1="119.531" x2="96.6244" y2="119.531" gradientUnits="userSpaceOnUse">
<stop stop-color="#FF1515"/>
<stop offset="0.38" stop-color="#FF1717"/>
<stop offset="0.52" stop-color="#FF1E1E"/>
<stop offset="0.61" stop-color="#FF2929"/>
<stop offset="0.69" stop-color="#FF3A3A"/>
<stop offset="0.76" stop-color="#FF5050"/>
<stop offset="0.82" stop-color="#FF6C6C"/>
<stop offset="0.87" stop-color="#FF8C8C"/>
<stop offset="0.92" stop-color="#FFB2B2"/>
<stop offset="0.97" stop-color="#FFDBDB"/>
<stop offset="1" stop-color="white"/>
<stop offset="1" stop-color="white"/>
<stop offset="1" stop-color="white"/>
</linearGradient>
<linearGradient id="paint5_linear_68_1113" x1="456.832" y1="176.334" x2="749.815" y2="176.334" gradientUnits="userSpaceOnUse">
<stop offset="0.31" stop-color="#FF1E1E"/>
<stop offset="0.378323" stop-color="#FF3737"/>
<stop offset="0.494787" stop-color="#FFB7B7"/>
<stop offset="0.611251" stop-color="#FF3737"/>
<stop offset="0.708226" stop-color="#FF1515"/>
<stop offset="0.832678" stop-color="#FF1E1E"/>
</linearGradient>
<linearGradient id="paint6_linear_68_1113" x1="47.0188" y1="115.073" x2="372.638" y2="115.073" gradientUnits="userSpaceOnUse">
<stop stop-color="#FF1515"/>
<stop offset="0.38" stop-color="#FF1717"/>
<stop offset="0.52" stop-color="#FF1E1E"/>
<stop offset="0.61" stop-color="#FF2929"/>
<stop offset="0.69" stop-color="#FF3A3A"/>
<stop offset="0.76" stop-color="#FF5050"/>
<stop offset="0.82" stop-color="#FF6C6C"/>
<stop offset="0.87" stop-color="#FF8C8C"/>
<stop offset="0.92" stop-color="#FFB2B2"/>
<stop offset="0.97" stop-color="#FFDBDB"/>
<stop offset="1" stop-color="white"/>
<stop offset="1" stop-color="white"/>
<stop offset="1" stop-color="white"/>
</linearGradient>
<linearGradient id="paint7_linear_68_1113" x1="58.3083" y1="110.105" x2="296.368" y2="110.105" gradientUnits="userSpaceOnUse">
<stop stop-color="#FF1515"/>
<stop offset="0.38" stop-color="#FF1717"/>
<stop offset="0.52" stop-color="#FF1E1E"/>
<stop offset="0.61" stop-color="#FF2929"/>
<stop offset="0.69" stop-color="#FF3A3A"/>
<stop offset="0.76" stop-color="#FF5050"/>
<stop offset="0.82" stop-color="#FF6C6C"/>
<stop offset="0.87" stop-color="#FF8C8C"/>
<stop offset="0.92" stop-color="#FFB2B2"/>
<stop offset="0.97" stop-color="#FFDBDB"/>
<stop offset="1" stop-color="white"/>
<stop offset="1" stop-color="white"/>
<stop offset="1" stop-color="white"/>
</linearGradient>
<linearGradient id="paint8_linear_68_1113" x1="131.163" y1="149.622" x2="147.815" y2="149.622" gradientUnits="userSpaceOnUse">
<stop stop-color="#FF1515"/>
<stop offset="0.38" stop-color="#FF1717"/>
<stop offset="0.52" stop-color="#FF1E1E"/>
<stop offset="0.61" stop-color="#FF2929"/>
<stop offset="0.69" stop-color="#FF3A3A"/>
<stop offset="0.76" stop-color="#FF5050"/>
<stop offset="0.82" stop-color="#FF6C6C"/>
<stop offset="0.87" stop-color="#FF8C8C"/>
<stop offset="0.92" stop-color="#FFB2B2"/>
<stop offset="0.97" stop-color="#FFDBDB"/>
<stop offset="1" stop-color="white"/>
<stop offset="1" stop-color="white"/>
<stop offset="1" stop-color="white"/>
</linearGradient>
<linearGradient id="paint9_linear_68_1113" x1="195.42" y1="187.565" x2="211.783" y2="187.565" gradientUnits="userSpaceOnUse">
<stop stop-color="#FF1515"/>
<stop offset="0.38" stop-color="#FF1717"/>
<stop offset="0.52" stop-color="#FF1E1E"/>
<stop offset="0.61" stop-color="#FF2929"/>
<stop offset="0.69" stop-color="#FF3A3A"/>
<stop offset="0.76" stop-color="#FF5050"/>
<stop offset="0.82" stop-color="#FF6C6C"/>
<stop offset="0.87" stop-color="#FF8C8C"/>
<stop offset="0.92" stop-color="#FFB2B2"/>
<stop offset="0.97" stop-color="#FFDBDB"/>
<stop offset="1" stop-color="white"/>
<stop offset="1" stop-color="white"/>
<stop offset="1" stop-color="white"/>
</linearGradient>
<linearGradient id="paint10_linear_68_1113" x1="178.968" y1="161.5" x2="187.285" y2="161.5" gradientUnits="userSpaceOnUse">
<stop stop-color="#FF1515"/>
<stop offset="0.38" stop-color="#FF1717"/>
<stop offset="0.52" stop-color="#FF1E1E"/>
<stop offset="0.61" stop-color="#FF2929"/>
<stop offset="0.69" stop-color="#FF3A3A"/>
<stop offset="0.76" stop-color="#FF5050"/>
<stop offset="0.82" stop-color="#FF6C6C"/>
<stop offset="0.87" stop-color="#FF8C8C"/>
<stop offset="0.92" stop-color="#FFB2B2"/>
<stop offset="0.97" stop-color="#FFDBDB"/>
<stop offset="1" stop-color="white"/>
<stop offset="1" stop-color="white"/>
<stop offset="1" stop-color="white"/>
</linearGradient>
<linearGradient id="paint11_linear_68_1113" x1="187.206" y1="56.0344" x2="198.856" y2="56.0344" gradientUnits="userSpaceOnUse">
<stop stop-color="#FF1515"/>
<stop offset="0.38" stop-color="#FF1717"/>
<stop offset="0.52" stop-color="#FF1E1E"/>
<stop offset="0.61" stop-color="#FF2929"/>
<stop offset="0.69" stop-color="#FF3A3A"/>
<stop offset="0.76" stop-color="#FF5050"/>
<stop offset="0.82" stop-color="#FF6C6C"/>
<stop offset="0.87" stop-color="#FF8C8C"/>
<stop offset="0.92" stop-color="#FFB2B2"/>
<stop offset="0.97" stop-color="#FFDBDB"/>
<stop offset="1" stop-color="white"/>
<stop offset="1" stop-color="white"/>
<stop offset="1" stop-color="white"/>
</linearGradient>
<linearGradient id="paint12_linear_68_1113" x1="128.362" y1="38.9196" x2="137.538" y2="38.9196" gradientUnits="userSpaceOnUse">
<stop stop-color="#FF1515"/>
<stop offset="0.38" stop-color="#FF1717"/>
<stop offset="0.52" stop-color="#FF1E1E"/>
<stop offset="0.61" stop-color="#FF2929"/>
<stop offset="0.69" stop-color="#FF3A3A"/>
<stop offset="0.76" stop-color="#FF5050"/>
<stop offset="0.82" stop-color="#FF6C6C"/>
<stop offset="0.87" stop-color="#FF8C8C"/>
<stop offset="0.92" stop-color="#FFB2B2"/>
<stop offset="0.97" stop-color="#FFDBDB"/>
<stop offset="1" stop-color="white"/>
<stop offset="1" stop-color="white"/>
<stop offset="1" stop-color="white"/>
</linearGradient>
<linearGradient id="paint13_linear_68_1113" x1="156.104" y1="62.6097" x2="161.417" y2="62.6097" gradientUnits="userSpaceOnUse">
<stop stop-color="#FF1515"/>
<stop offset="0.38" stop-color="#FF1717"/>
<stop offset="0.52" stop-color="#FF1E1E"/>
<stop offset="0.61" stop-color="#FF2929"/>
<stop offset="0.69" stop-color="#FF3A3A"/>
<stop offset="0.76" stop-color="#FF5050"/>
<stop offset="0.82" stop-color="#FF6C6C"/>
<stop offset="0.87" stop-color="#FF8C8C"/>
<stop offset="0.92" stop-color="#FFB2B2"/>
<stop offset="0.97" stop-color="#FFDBDB"/>
<stop offset="1" stop-color="white"/>
<stop offset="1" stop-color="white"/>
<stop offset="1" stop-color="white"/>
</linearGradient>
<linearGradient id="paint14_linear_68_1113" x1="220.582" y1="71.5126" x2="229.273" y2="71.5126" gradientUnits="userSpaceOnUse">
<stop stop-color="#FF1515"/>
<stop offset="0.38" stop-color="#FF1717"/>
<stop offset="0.52" stop-color="#FF1E1E"/>
<stop offset="0.61" stop-color="#FF2929"/>
<stop offset="0.69" stop-color="#FF3A3A"/>
<stop offset="0.76" stop-color="#FF5050"/>
<stop offset="0.82" stop-color="#FF6C6C"/>
<stop offset="0.87" stop-color="#FF8C8C"/>
<stop offset="0.92" stop-color="#FFB2B2"/>
<stop offset="0.97" stop-color="#FFDBDB"/>
<stop offset="1" stop-color="white"/>
<stop offset="1" stop-color="white"/>
<stop offset="1" stop-color="white"/>
</linearGradient>
<linearGradient id="paint15_linear_68_1113" x1="285.475" y1="201.342" x2="296.368" y2="201.342" gradientUnits="userSpaceOnUse">
<stop stop-color="#FF1515"/>
<stop offset="0.38" stop-color="#FF1717"/>
<stop offset="0.52" stop-color="#FF1E1E"/>
<stop offset="0.61" stop-color="#FF2929"/>
<stop offset="0.69" stop-color="#FF3A3A"/>
<stop offset="0.76" stop-color="#FF5050"/>
<stop offset="0.82" stop-color="#FF6C6C"/>
<stop offset="0.87" stop-color="#FF8C8C"/>
<stop offset="0.92" stop-color="#FFB2B2"/>
<stop offset="0.97" stop-color="#FFDBDB"/>
<stop offset="1" stop-color="white"/>
<stop offset="1" stop-color="white"/>
<stop offset="1" stop-color="white"/>
</linearGradient>
<linearGradient id="paint16_linear_68_1113" x1="230.841" y1="184.554" x2="240.308" y2="184.554" gradientUnits="userSpaceOnUse">
<stop stop-color="#FF1515"/>
<stop offset="0.38" stop-color="#FF1717"/>
<stop offset="0.52" stop-color="#FF1E1E"/>
<stop offset="0.61" stop-color="#FF2929"/>
<stop offset="0.69" stop-color="#FF3A3A"/>
<stop offset="0.76" stop-color="#FF5050"/>
<stop offset="0.82" stop-color="#FF6C6C"/>
<stop offset="0.87" stop-color="#FF8C8C"/>
<stop offset="0.92" stop-color="#FFB2B2"/>
<stop offset="0.97" stop-color="#FFDBDB"/>
<stop offset="1" stop-color="white"/>
<stop offset="1" stop-color="white"/>
<stop offset="1" stop-color="white"/>
</linearGradient>
<linearGradient id="paint17_linear_68_1113" x1="247.599" y1="177.246" x2="255.283" y2="177.246" gradientUnits="userSpaceOnUse">
<stop stop-color="#FF1515"/>
<stop offset="0.38" stop-color="#FF1717"/>
<stop offset="0.52" stop-color="#FF1E1E"/>
<stop offset="0.61" stop-color="#FF2929"/>
<stop offset="0.69" stop-color="#FF3A3A"/>
<stop offset="0.76" stop-color="#FF5050"/>
<stop offset="0.82" stop-color="#FF6C6C"/>
<stop offset="0.87" stop-color="#FF8C8C"/>
<stop offset="0.92" stop-color="#FFB2B2"/>
<stop offset="0.97" stop-color="#FFDBDB"/>
<stop offset="1" stop-color="white"/>
<stop offset="1" stop-color="white"/>
<stop offset="1" stop-color="white"/>
</linearGradient>
<linearGradient id="paint18_linear_68_1113" x1="1198.98" y1="116.776" x2="873.363" y2="116.776" gradientUnits="userSpaceOnUse">
<stop stop-color="#FF1515"/>
<stop offset="0.38" stop-color="#FF1717"/>
<stop offset="0.52" stop-color="#FF1E1E"/>
<stop offset="0.61" stop-color="#FF2929"/>
<stop offset="0.69" stop-color="#FF3A3A"/>
<stop offset="0.76" stop-color="#FF5050"/>
<stop offset="0.82" stop-color="#FF6C6C"/>
<stop offset="0.87" stop-color="#FF8C8C"/>
<stop offset="0.92" stop-color="#FFB2B2"/>
<stop offset="0.97" stop-color="#FFDBDB"/>
<stop offset="1" stop-color="white"/>
<stop offset="1" stop-color="white"/>
<stop offset="1" stop-color="white"/>
</linearGradient>
<linearGradient id="paint19_linear_68_1113" x1="1187.69" y1="110.105" x2="949.633" y2="110.105" gradientUnits="userSpaceOnUse">
<stop stop-color="#FF1515"/>
<stop offset="0.38" stop-color="#FF1717"/>
<stop offset="0.52" stop-color="#FF1E1E"/>
<stop offset="0.61" stop-color="#FF2929"/>
<stop offset="0.69" stop-color="#FF3A3A"/>
<stop offset="0.76" stop-color="#FF5050"/>
<stop offset="0.82" stop-color="#FF6C6C"/>
<stop offset="0.87" stop-color="#FF8C8C"/>
<stop offset="0.92" stop-color="#FFB2B2"/>
<stop offset="0.97" stop-color="#FFDBDB"/>
<stop offset="1" stop-color="white"/>
<stop offset="1" stop-color="white"/>
<stop offset="1" stop-color="white"/>
</linearGradient>
<linearGradient id="paint20_linear_68_1113" x1="1114.84" y1="149.622" x2="1098.19" y2="149.622" gradientUnits="userSpaceOnUse">
<stop stop-color="#FF1515"/>
<stop offset="0.38" stop-color="#FF1717"/>
<stop offset="0.52" stop-color="#FF1E1E"/>
<stop offset="0.61" stop-color="#FF2929"/>
<stop offset="0.69" stop-color="#FF3A3A"/>
<stop offset="0.76" stop-color="#FF5050"/>
<stop offset="0.82" stop-color="#FF6C6C"/>
<stop offset="0.87" stop-color="#FF8C8C"/>
<stop offset="0.92" stop-color="#FFB2B2"/>
<stop offset="0.97" stop-color="#FFDBDB"/>
<stop offset="1" stop-color="white"/>
<stop offset="1" stop-color="white"/>
<stop offset="1" stop-color="white"/>
</linearGradient>
<linearGradient id="paint21_linear_68_1113" x1="1050.58" y1="187.565" x2="1034.22" y2="187.565" gradientUnits="userSpaceOnUse">
<stop stop-color="#FF1515"/>
<stop offset="0.38" stop-color="#FF1717"/>
<stop offset="0.52" stop-color="#FF1E1E"/>
<stop offset="0.61" stop-color="#FF2929"/>
<stop offset="0.69" stop-color="#FF3A3A"/>
<stop offset="0.76" stop-color="#FF5050"/>
<stop offset="0.82" stop-color="#FF6C6C"/>
<stop offset="0.87" stop-color="#FF8C8C"/>
<stop offset="0.92" stop-color="#FFB2B2"/>
<stop offset="0.97" stop-color="#FFDBDB"/>
<stop offset="1" stop-color="white"/>
<stop offset="1" stop-color="white"/>
<stop offset="1" stop-color="white"/>
</linearGradient>
<linearGradient id="paint22_linear_68_1113" x1="1067.03" y1="161.5" x2="1058.72" y2="161.5" gradientUnits="userSpaceOnUse">
<stop stop-color="#FF1515"/>
<stop offset="0.38" stop-color="#FF1717"/>
<stop offset="0.52" stop-color="#FF1E1E"/>
<stop offset="0.61" stop-color="#FF2929"/>
<stop offset="0.69" stop-color="#FF3A3A"/>
<stop offset="0.76" stop-color="#FF5050"/>
<stop offset="0.82" stop-color="#FF6C6C"/>
<stop offset="0.87" stop-color="#FF8C8C"/>
<stop offset="0.92" stop-color="#FFB2B2"/>
<stop offset="0.97" stop-color="#FFDBDB"/>
<stop offset="1" stop-color="white"/>
<stop offset="1" stop-color="white"/>
<stop offset="1" stop-color="white"/>
</linearGradient>
<linearGradient id="paint23_linear_68_1113" x1="1178.63" y1="22.7955" x2="1169.09" y2="22.7955" gradientUnits="userSpaceOnUse">
<stop stop-color="#FF1515"/>
<stop offset="0.38" stop-color="#FF1717"/>
<stop offset="0.52" stop-color="#FF1E1E"/>
<stop offset="0.61" stop-color="#FF2929"/>
<stop offset="0.69" stop-color="#FF3A3A"/>
<stop offset="0.76" stop-color="#FF5050"/>
<stop offset="0.82" stop-color="#FF6C6C"/>
<stop offset="0.87" stop-color="#FF8C8C"/>
<stop offset="0.92" stop-color="#FFB2B2"/>
<stop offset="0.97" stop-color="#FFDBDB"/>
<stop offset="1" stop-color="white"/>
<stop offset="1" stop-color="white"/>
<stop offset="1" stop-color="white"/>
</linearGradient>
<linearGradient id="paint24_linear_68_1113" x1="1058.79" y1="56.0344" x2="1047.14" y2="56.0344" gradientUnits="userSpaceOnUse">
<stop stop-color="#FF1515"/>
<stop offset="0.38" stop-color="#FF1717"/>
<stop offset="0.52" stop-color="#FF1E1E"/>
<stop offset="0.61" stop-color="#FF2929"/>
<stop offset="0.69" stop-color="#FF3A3A"/>
<stop offset="0.76" stop-color="#FF5050"/>
<stop offset="0.82" stop-color="#FF6C6C"/>
<stop offset="0.87" stop-color="#FF8C8C"/>
<stop offset="0.92" stop-color="#FFB2B2"/>
<stop offset="0.97" stop-color="#FFDBDB"/>
<stop offset="1" stop-color="white"/>
<stop offset="1" stop-color="white"/>
<stop offset="1" stop-color="white"/>
</linearGradient>
<linearGradient id="paint25_linear_68_1113" x1="1117.64" y1="38.9196" x2="1108.46" y2="38.9196" gradientUnits="userSpaceOnUse">
<stop stop-color="#FF1515"/>
<stop offset="0.38" stop-color="#FF1717"/>
<stop offset="0.52" stop-color="#FF1E1E"/>
<stop offset="0.61" stop-color="#FF2929"/>
<stop offset="0.69" stop-color="#FF3A3A"/>
<stop offset="0.76" stop-color="#FF5050"/>
<stop offset="0.82" stop-color="#FF6C6C"/>
<stop offset="0.87" stop-color="#FF8C8C"/>
<stop offset="0.92" stop-color="#FFB2B2"/>
<stop offset="0.97" stop-color="#FFDBDB"/>
<stop offset="1" stop-color="white"/>
<stop offset="1" stop-color="white"/>
<stop offset="1" stop-color="white"/>
</linearGradient>
<linearGradient id="paint26_linear_68_1113" x1="1089.9" y1="62.6097" x2="1084.58" y2="62.6097" gradientUnits="userSpaceOnUse">
<stop stop-color="#FF1515"/>
<stop offset="0.38" stop-color="#FF1717"/>
<stop offset="0.52" stop-color="#FF1E1E"/>
<stop offset="0.61" stop-color="#FF2929"/>
<stop offset="0.69" stop-color="#FF3A3A"/>
<stop offset="0.76" stop-color="#FF5050"/>
<stop offset="0.82" stop-color="#FF6C6C"/>
<stop offset="0.87" stop-color="#FF8C8C"/>
<stop offset="0.92" stop-color="#FFB2B2"/>
<stop offset="0.97" stop-color="#FFDBDB"/>
<stop offset="1" stop-color="white"/>
<stop offset="1" stop-color="white"/>
<stop offset="1" stop-color="white"/>
</linearGradient>
<linearGradient id="paint27_linear_68_1113" x1="1025.42" y1="71.5126" x2="1016.73" y2="71.5126" gradientUnits="userSpaceOnUse">
<stop stop-color="#FF1515"/>
<stop offset="0.38" stop-color="#FF1717"/>
<stop offset="0.52" stop-color="#FF1E1E"/>
<stop offset="0.61" stop-color="#FF2929"/>
<stop offset="0.69" stop-color="#FF3A3A"/>
<stop offset="0.76" stop-color="#FF5050"/>
<stop offset="0.82" stop-color="#FF6C6C"/>
<stop offset="0.87" stop-color="#FF8C8C"/>
<stop offset="0.92" stop-color="#FFB2B2"/>
<stop offset="0.97" stop-color="#FFDBDB"/>
<stop offset="1" stop-color="white"/>
<stop offset="1" stop-color="white"/>
<stop offset="1" stop-color="white"/>
</linearGradient>
<linearGradient id="paint28_linear_68_1113" x1="960.526" y1="201.342" x2="949.633" y2="201.342" gradientUnits="userSpaceOnUse">
<stop stop-color="#FF1515"/>
<stop offset="0.38" stop-color="#FF1717"/>
<stop offset="0.52" stop-color="#FF1E1E"/>
<stop offset="0.61" stop-color="#FF2929"/>
<stop offset="0.69" stop-color="#FF3A3A"/>
<stop offset="0.76" stop-color="#FF5050"/>
<stop offset="0.82" stop-color="#FF6C6C"/>
<stop offset="0.87" stop-color="#FF8C8C"/>
<stop offset="0.92" stop-color="#FFB2B2"/>
<stop offset="0.97" stop-color="#FFDBDB"/>
<stop offset="1" stop-color="white"/>
<stop offset="1" stop-color="white"/>
<stop offset="1" stop-color="white"/>
</linearGradient>
<linearGradient id="paint29_linear_68_1113" x1="1015.16" y1="184.554" x2="1005.69" y2="184.554" gradientUnits="userSpaceOnUse">
<stop stop-color="#FF1515"/>
<stop offset="0.38" stop-color="#FF1717"/>
<stop offset="0.52" stop-color="#FF1E1E"/>
<stop offset="0.61" stop-color="#FF2929"/>
<stop offset="0.69" stop-color="#FF3A3A"/>
<stop offset="0.76" stop-color="#FF5050"/>
<stop offset="0.82" stop-color="#FF6C6C"/>
<stop offset="0.87" stop-color="#FF8C8C"/>
<stop offset="0.92" stop-color="#FFB2B2"/>
<stop offset="0.97" stop-color="#FFDBDB"/>
<stop offset="1" stop-color="white"/>
<stop offset="1" stop-color="white"/>
<stop offset="1" stop-color="white"/>
</linearGradient>
<linearGradient id="paint30_linear_68_1113" x1="1187.67" y1="76.5354" x2="1182.38" y2="76.5354" gradientUnits="userSpaceOnUse">
<stop stop-color="#FF1515"/>
<stop offset="0.38" stop-color="#FF1717"/>
<stop offset="0.52" stop-color="#FF1E1E"/>
<stop offset="0.61" stop-color="#FF2929"/>
<stop offset="0.69" stop-color="#FF3A3A"/>
<stop offset="0.76" stop-color="#FF5050"/>
<stop offset="0.82" stop-color="#FF6C6C"/>
<stop offset="0.87" stop-color="#FF8C8C"/>
<stop offset="0.92" stop-color="#FFB2B2"/>
<stop offset="0.97" stop-color="#FFDBDB"/>
<stop offset="1" stop-color="white"/>
<stop offset="1" stop-color="white"/>
<stop offset="1" stop-color="white"/>
</linearGradient>
<linearGradient id="paint31_linear_68_1113" x1="1150.14" y1="123.634" x2="1140.37" y2="123.634" gradientUnits="userSpaceOnUse">
<stop stop-color="#FF1515"/>
<stop offset="0.38" stop-color="#FF1717"/>
<stop offset="0.52" stop-color="#FF1E1E"/>
<stop offset="0.61" stop-color="#FF2929"/>
<stop offset="0.69" stop-color="#FF3A3A"/>
<stop offset="0.76" stop-color="#FF5050"/>
<stop offset="0.82" stop-color="#FF6C6C"/>
<stop offset="0.87" stop-color="#FF8C8C"/>
<stop offset="0.92" stop-color="#FFB2B2"/>
<stop offset="0.97" stop-color="#FFDBDB"/>
<stop offset="1" stop-color="white"/>
<stop offset="1" stop-color="white"/>
<stop offset="1" stop-color="white"/>
</linearGradient>
<linearGradient id="paint32_linear_68_1113" x1="998.402" y1="177.246" x2="990.718" y2="177.246" gradientUnits="userSpaceOnUse">
<stop stop-color="#FF1515"/>
<stop offset="0.38" stop-color="#FF1717"/>
<stop offset="0.52" stop-color="#FF1E1E"/>
<stop offset="0.61" stop-color="#FF2929"/>
<stop offset="0.69" stop-color="#FF3A3A"/>
<stop offset="0.76" stop-color="#FF5050"/>
<stop offset="0.82" stop-color="#FF6C6C"/>
<stop offset="0.87" stop-color="#FF8C8C"/>
<stop offset="0.92" stop-color="#FFB2B2"/>
<stop offset="0.97" stop-color="#FFDBDB"/>
<stop offset="1" stop-color="white"/>
<stop offset="1" stop-color="white"/>
<stop offset="1" stop-color="white"/>
</linearGradient>
<linearGradient id="paint33_linear_68_1113" x1="1188.19" y1="27.468" x2="1186.55" y2="27.468" gradientUnits="userSpaceOnUse">
<stop stop-color="#FF1515"/>
<stop offset="0.38" stop-color="#FF1717"/>
<stop offset="0.52" stop-color="#FF1E1E"/>
<stop offset="0.61" stop-color="#FF2929"/>
<stop offset="0.69" stop-color="#FF3A3A"/>
<stop offset="0.76" stop-color="#FF5050"/>
<stop offset="0.82" stop-color="#FF6C6C"/>
<stop offset="0.87" stop-color="#FF8C8C"/>
<stop offset="0.92" stop-color="#FFB2B2"/>
<stop offset="0.97" stop-color="#FFDBDB"/>
<stop offset="1" stop-color="white"/>
<stop offset="1" stop-color="white"/>
<stop offset="1" stop-color="white"/>
</linearGradient>
<linearGradient id="paint34_linear_68_1113" x1="1151.08" y1="119.531" x2="1149.38" y2="119.531" gradientUnits="userSpaceOnUse">
<stop stop-color="#FF1515"/>
<stop offset="0.38" stop-color="#FF1717"/>
<stop offset="0.52" stop-color="#FF1E1E"/>
<stop offset="0.61" stop-color="#FF2929"/>
<stop offset="0.69" stop-color="#FF3A3A"/>
<stop offset="0.76" stop-color="#FF5050"/>
<stop offset="0.82" stop-color="#FF6C6C"/>
<stop offset="0.87" stop-color="#FF8C8C"/>
<stop offset="0.92" stop-color="#FFB2B2"/>
<stop offset="0.97" stop-color="#FFDBDB"/>
<stop offset="1" stop-color="white"/>
<stop offset="1" stop-color="white"/>
<stop offset="1" stop-color="white"/>
</linearGradient>
<linearGradient id="paint35_linear_68_1113" x1="510.65" y1="107" x2="510.65" y2="126" gradientUnits="userSpaceOnUse">
<stop stop-color="#FF1515"/>
<stop offset="1" stop-color="#FF1515"/>
</linearGradient>
<linearGradient id="paint36_linear_68_1113" x1="627" y1="213" x2="627" y2="339" gradientUnits="userSpaceOnUse">
<stop offset="0.241079" stop-color="white"/>
<stop offset="0.610598" stop-color="#FF0000"/>
</linearGradient>
</defs>
</svg>
